<?xml version="1.0" encoding="UTF-8" standalone="no"?>
<svg
   xmlns:dc="http://purl.org/dc/elements/1.1/"
   xmlns:cc="http://creativecommons.org/ns#"
   xmlns:rdf="http://www.w3.org/1999/02/22-rdf-syntax-ns#"
   xmlns:svg="http://www.w3.org/2000/svg"
   xmlns="http://www.w3.org/2000/svg"
   xmlns:sodipodi="http://sodipodi.sourceforge.net/DTD/sodipodi-0.dtd"
   xmlns:inkscape="http://www.inkscape.org/namespaces/inkscape"
   inkscape:version="1.0 (4035a4fb49, 2020-05-01)"
   sodipodi:docname="visible.svg"
   id="svg4"
   viewBox="0 0 16 16"
   version="1.1">
  <metadata
     id="metadata10">
    <rdf:RDF>
      <cc:Work
         rdf:about="">
        <dc:format>image/svg+xml</dc:format>
        <dc:type
           rdf:resource="http://purl.org/dc/dcmitype/StillImage" />
      </cc:Work>
    </rdf:RDF>
  </metadata>
  <defs
     id="defs8" />
  <sodipodi:namedview
     inkscape:current-layer="svg4"
     inkscape:window-maximized="1"
     inkscape:window-y="288"
     inkscape:window-x="900"
     inkscape:cy="8"
     inkscape:cx="8"
     inkscape:zoom="44.6875"
     showgrid="false"
     id="namedview6"
     inkscape:window-height="1021"
     inkscape:window-width="1920"
     inkscape:pageshadow="2"
     inkscape:pageopacity="0"
     guidetolerance="10"
     gridtolerance="10"
     objecttolerance="10"
     borderopacity="1"
     bordercolor="#666666"
     pagecolor="#ffffff" />
  <path
     style="fill:#ffffff;fill-opacity:1"
     id="path2"
     stroke-width=".91287"
     fill-rule="evenodd"
     d="m8.06 3c-5.06 0-8.06 5-8.06 5s3 5 8.06 5c4.94 0 7.94-5 7.94-5s-3-5-7.94-5zm-0.06 8.3333c-2.2 0-4-1.4833-4-3.3333 0-1.8333 1.8-3.3333 4-3.3333 2.22 0 4 1.5 4 3.3333 0 1.85-1.78 3.3333-4 3.3333zm2-3.3333c0 0.925-0.89 1.6667-2 1.6667s-2-0.74167-2-1.6667c0-0.925 0.89-1.6667 2-1.6667s2 0.74167 2 1.6667z" />
</svg>
